<svg width="2494" height="512" viewBox="0 0 2494 512" fill="none" xmlns="http://www.w3.org/2000/svg">
<g clip-path="url(#clip0_301_66)">
<path d="M255.55 0C114.42 0 0 114.42 0 255.55C0 396.68 114.42 511.07 255.55 511.07C396.68 511.07 511.12 396.66 511.12 255.51C511.12 114.36 396.7 0 255.55 0ZM142.38 319.25C142.259 324.823 139.961 330.127 135.976 334.026C131.992 337.925 126.639 340.108 121.065 340.108C115.491 340.108 110.138 337.925 106.154 334.026C102.169 330.127 99.8707 324.823 99.75 319.25V266C99.6843 263.198 100.172 260.41 101.185 257.796C102.198 255.182 103.716 252.794 105.653 250.768C107.59 248.742 109.908 247.117 112.473 245.988C115.039 244.858 117.802 244.246 120.604 244.185C123.407 244.125 126.193 244.618 128.805 245.635C131.417 246.653 133.803 248.176 135.825 250.117C137.848 252.058 139.468 254.378 140.593 256.946C141.717 259.513 142.325 262.277 142.38 265.08C142.38 265.38 142.38 265.69 142.38 266V319.25ZM209.73 360.6C209.609 366.173 207.311 371.477 203.326 375.376C199.342 379.275 193.989 381.458 188.415 381.458C182.841 381.458 177.488 379.275 173.504 375.376C169.519 371.477 167.221 366.173 167.1 360.6V170.05C167.034 167.248 167.522 164.46 168.535 161.846C169.548 159.232 171.066 156.844 173.003 154.818C174.94 152.792 177.258 151.167 179.823 150.038C182.389 148.908 185.152 148.296 187.954 148.235C190.757 148.175 193.544 148.668 196.155 149.685C198.767 150.703 201.153 152.226 203.175 154.167C205.198 156.108 206.818 158.428 207.943 160.996C209.067 163.563 209.675 166.327 209.73 169.13C209.73 169.43 209.73 169.74 209.73 170.05V360.6ZM277.08 319.25C277.08 324.902 274.835 330.322 270.838 334.318C266.842 338.315 261.422 340.56 255.77 340.56C250.118 340.56 244.698 338.315 240.702 334.318C236.705 330.322 234.46 324.902 234.46 319.25V106.52C234.46 100.868 236.705 95.448 240.702 91.4516C244.698 87.4552 250.118 85.21 255.77 85.21C261.422 85.21 266.842 87.4552 270.838 91.4516C274.835 95.448 277.08 100.868 277.08 106.52V319.25ZM344.44 383.19C344.319 388.763 342.021 394.067 338.036 397.966C334.052 401.865 328.699 404.048 323.125 404.048C317.551 404.048 312.198 401.865 308.214 397.966C304.229 394.067 301.931 388.763 301.81 383.19V170.05C301.744 167.248 302.232 164.46 303.245 161.846C304.258 159.232 305.776 156.844 307.713 154.818C309.65 152.792 311.968 151.167 314.533 150.038C317.099 148.908 319.862 148.296 322.664 148.235C325.467 148.175 328.254 148.668 330.865 149.685C333.477 150.703 335.863 152.226 337.885 154.167C339.908 156.108 341.528 158.428 342.653 160.996C343.777 163.563 344.385 166.327 344.44 169.13C344.44 169.43 344.44 169.74 344.44 170.05V383.19ZM411.81 229.73C411.876 232.532 411.388 235.32 410.375 237.934C409.362 240.548 407.844 242.936 405.907 244.962C403.97 246.988 401.652 248.613 399.087 249.742C396.521 250.872 393.758 251.484 390.956 251.545C388.153 251.605 385.367 251.112 382.755 250.095C380.143 249.077 377.757 247.554 375.735 245.613C373.712 243.672 372.092 241.352 370.967 238.784C369.843 236.217 369.235 233.453 369.18 230.65C369.18 230.35 369.18 230.04 369.18 229.73V170.05C369.114 167.248 369.602 164.46 370.615 161.846C371.628 159.232 373.146 156.844 375.083 154.818C377.02 152.792 379.338 151.167 381.903 150.038C384.469 148.908 387.232 148.296 390.034 148.235C392.837 148.175 395.624 148.668 398.235 149.685C400.847 150.703 403.233 152.226 405.255 154.167C407.278 156.108 408.898 158.428 410.023 160.996C411.147 163.563 411.755 166.327 411.81 169.13C411.81 169.43 411.81 169.74 411.81 170.05V229.73Z" fill="url(#paint0_linear_301_66)"/>
<path d="M658.1 375.11L578.36 137.62H629.26L687.26 320.15L744.94 137.62H796.17L716.11 375.11H658.1Z" fill="black"/>
<path d="M937.66 353.91C920.24 371.21 898.977 379.86 873.87 379.86C848.763 379.86 827.56 371.21 810.26 353.91C792.927 336.577 784.26 315.37 784.26 290.29C784.26 265.21 792.927 244.007 810.26 226.68C827.593 209.347 848.797 200.68 873.87 200.68C898.943 200.68 920.207 209.347 937.66 226.68C955.093 243.98 963.81 265.183 963.81 290.29C963.81 315.397 955.093 336.603 937.66 353.91ZM841.13 323.91C849.843 332.73 860.757 337.14 873.87 337.14C886.983 337.14 897.963 332.72 906.81 323.88C915.603 315.06 920 303.863 920 290.29C920 276.717 915.603 265.52 906.81 256.7C897.983 247.88 887.01 243.47 873.89 243.47C860.77 243.47 849.857 247.88 841.15 256.7C832.443 265.52 828.09 276.717 828.09 290.29C828.09 303.863 832.423 315.06 841.09 323.88L841.13 323.91Z" fill="black"/>
<path d="M1013 185.12C1005.92 185.007 999.171 182.146 994.168 177.142C989.164 172.139 986.303 165.385 986.19 158.31C986.175 154.767 986.876 151.258 988.251 147.993C989.625 144.729 991.646 141.775 994.19 139.31C996.593 136.722 999.508 134.662 1002.75 133.26C1005.99 131.859 1009.49 131.147 1013.02 131.17C1016.6 131.125 1020.16 131.825 1023.46 133.227C1026.76 134.628 1029.73 136.699 1032.19 139.31C1034.73 141.775 1036.75 144.729 1038.13 147.993C1039.5 151.258 1040.2 154.767 1040.19 158.31C1040.21 161.829 1039.52 165.315 1038.14 168.554C1036.76 171.792 1034.74 174.714 1032.19 177.14C1029.71 179.712 1026.72 181.747 1023.42 183.12C1020.12 184.493 1016.57 185.173 1013 185.12ZM991.28 375.12V227.35C991.283 221.546 993.59 215.981 997.695 211.878C1001.8 207.775 1007.37 205.47 1013.17 205.47C1018.96 205.489 1024.51 207.801 1028.6 211.902C1032.69 216.003 1034.99 221.557 1035 227.35V375.11L991.28 375.12Z" fill="black"/>
<path d="M1152.42 379.86C1126.86 379.86 1105.53 371.267 1088.42 354.08C1071.31 336.893 1062.78 315.63 1062.81 290.29C1062.81 264.957 1071.35 243.697 1088.42 226.51C1105.49 209.323 1126.83 200.727 1152.42 200.72C1168.26 200.542 1183.85 204.646 1197.54 212.6C1210.67 220.06 1221.39 231.127 1228.42 244.49L1190.81 266.54C1187.46 259.571 1182.07 253.778 1175.37 249.92C1168.32 245.811 1160.29 243.699 1152.13 243.81C1139.01 243.81 1128.15 248.163 1119.56 256.87C1110.97 265.577 1106.67 276.717 1106.67 290.29C1106.67 303.623 1110.97 314.65 1119.56 323.37C1128.15 332.09 1139.01 336.447 1152.13 336.44C1160.38 336.591 1168.52 334.541 1175.71 330.5C1182.42 326.719 1187.79 320.956 1191.1 314L1229.1 335.71C1221.66 349.042 1210.76 360.121 1197.55 367.78C1183.89 375.846 1168.28 380.023 1152.42 379.86Z" fill="black"/>
<path d="M1283 308.27C1288.88 329.543 1304.83 340.177 1330.84 340.17C1347.58 340.17 1360.25 334.503 1368.84 323.17L1404.13 343.53C1387.39 367.743 1362.72 379.843 1330.13 379.83C1302.09 379.83 1279.59 371.35 1262.62 354.39C1245.65 337.43 1237.17 316.053 1237.17 290.26C1237.17 264.707 1245.54 243.373 1262.28 226.26C1279.02 209.147 1300.52 200.633 1326.77 200.72C1351.65 200.72 1372.18 209.317 1388.35 226.51C1404.52 243.703 1412.61 264.963 1412.61 290.29C1412.57 296.328 1412.01 302.351 1410.92 308.29L1283 308.27ZM1282.33 274.35H1368.84C1366.35 262.81 1361.2 254.213 1353.41 248.56C1345.68 242.933 1336.33 239.958 1326.77 240.08C1315.01 240.08 1305.28 243.08 1297.59 249.08C1289.9 255.08 1284.81 263.503 1282.33 274.35Z" fill="black"/>
<path d="M1627.41 200.72C1646.86 200.72 1662.41 207.053 1674.06 219.72C1685.71 232.387 1691.54 249.35 1691.54 270.61V375.11H1647.81V273.67C1647.81 263.49 1645.32 255.573 1640.34 249.92C1635.36 244.267 1628.36 241.44 1619.34 241.44C1609.38 241.44 1601.63 244.717 1596.1 251.27C1590.57 257.823 1587.8 267.323 1587.79 279.77V375.11H1544V273.67C1544 263.49 1541.51 255.573 1536.53 249.92C1531.55 244.267 1524.55 241.44 1515.53 241.44C1505.8 241.44 1498.05 244.717 1492.29 251.27C1486.53 257.823 1483.65 267.323 1483.64 279.77V375.11H1439.79V205.47H1483.56V223.47C1493.73 208.323 1509.45 200.747 1530.72 200.74C1551.52 200.74 1566.9 208.883 1576.86 225.17C1588.17 208.883 1605.02 200.733 1627.41 200.72Z" fill="black"/>
<path d="M1854.39 205.47H1898.16V375.11H1854.39V355.11C1841.27 371.63 1822.84 379.887 1799.09 379.88C1776.47 379.88 1757.07 371.23 1740.9 353.93C1724.73 336.63 1716.64 315.423 1716.64 290.31C1716.64 265.21 1724.73 244.007 1740.9 226.7C1757.07 209.393 1776.47 200.727 1799.09 200.7C1822.83 200.7 1841.26 208.957 1854.39 225.47V205.47ZM1773.64 324.73C1782.46 333.67 1793.66 338.137 1807.23 338.13C1820.8 338.123 1832.06 333.657 1840.99 324.73C1849.92 315.803 1854.39 304.323 1854.39 290.29C1854.39 276.257 1849.93 264.777 1841 255.85C1832.06 246.917 1820.81 242.45 1807.24 242.45C1793.67 242.45 1782.48 246.917 1773.65 255.85C1764.83 264.79 1760.42 276.27 1760.42 290.29C1760.42 304.31 1764.83 315.79 1773.64 324.73Z" fill="black"/>
<path d="M2090.86 375.11H2040L1978.25 298.11V375.11H1934.48V137.62H1978.25V280.11L2036.61 205.47H2088.84L2020.64 289.27L2090.86 375.11Z" fill="black"/>
<path d="M2134 308.27C2139.88 329.543 2155.83 340.177 2181.84 340.17C2198.58 340.17 2211.25 334.503 2219.84 323.17L2255.12 343.53C2238.38 367.743 2213.71 379.843 2181.12 379.83C2153.07 379.83 2130.56 371.35 2113.61 354.39C2096.66 337.43 2088.17 316.053 2088.16 290.26C2088.16 264.707 2096.53 243.373 2113.27 226.26C2130.01 209.147 2151.5 200.607 2177.73 200.64C2202.61 200.64 2223.14 209.237 2239.31 226.43C2255.48 243.623 2263.57 264.883 2263.57 290.21C2263.54 296.249 2262.97 302.272 2261.87 308.21L2134 308.27ZM2133.32 274.35H2219.86C2217.37 262.81 2212.23 254.213 2204.42 248.56C2196.69 242.933 2187.35 239.958 2177.79 240.08C2166.02 240.08 2156.3 243.08 2148.61 249.08C2140.92 255.08 2135.83 263.503 2133.32 274.35Z" fill="black"/>
<path d="M2334.46 234.65C2338.53 223.79 2345.26 215.647 2354.65 210.22C2364.19 204.75 2375.03 201.939 2386.03 202.08V250.93C2372.7 249.363 2360.77 252.08 2350.24 259.08C2339.71 266.08 2334.45 277.72 2334.46 294V375.09H2290.7V205.47H2334.46V234.65Z" fill="black"/>
</g>
<path d="M2424.24 167.955V126.023H2444.35C2446.47 126.023 2448.52 126.534 2450.49 127.557C2452.5 128.542 2454.14 130.019 2455.43 131.989C2456.76 133.92 2457.42 136.307 2457.42 139.148C2457.42 141.989 2456.74 144.451 2455.38 146.534C2454.05 148.58 2452.34 150.152 2450.26 151.25C2448.22 152.348 2446.09 152.898 2443.9 152.898H2428.33V147.159H2441.97C2443.9 147.159 2445.62 146.477 2447.14 145.114C2448.69 143.712 2449.47 141.723 2449.47 139.148C2449.47 136.496 2448.69 134.602 2447.14 133.466C2445.62 132.33 2443.95 131.761 2442.14 131.761H2431.57V167.955H2424.24ZM2448.67 148.466L2459.12 167.955H2450.94L2440.77 148.466H2448.67ZM2439.64 192.955C2433.35 192.955 2427.46 191.78 2421.97 189.432C2416.47 187.083 2411.64 183.826 2407.48 179.659C2403.31 175.492 2400.05 170.663 2397.7 165.17C2395.36 159.678 2394.18 153.788 2394.18 147.5C2394.18 141.212 2395.36 135.322 2397.7 129.83C2400.05 124.337 2403.31 119.508 2407.48 115.341C2411.64 111.174 2416.47 107.917 2421.97 105.568C2427.46 103.22 2433.35 102.045 2439.64 102.045C2445.92 102.045 2451.81 103.22 2457.31 105.568C2462.8 107.917 2467.63 111.174 2471.8 115.341C2475.96 119.508 2479.22 124.337 2481.57 129.83C2483.92 135.322 2485.09 141.212 2485.09 147.5C2485.09 153.788 2483.92 159.678 2481.57 165.17C2479.22 170.663 2475.96 175.492 2471.8 179.659C2467.63 183.826 2462.8 187.083 2457.31 189.432C2451.81 191.78 2445.92 192.955 2439.64 192.955ZM2439.64 184.489C2446.45 184.489 2452.65 182.822 2458.22 179.489C2463.82 176.155 2468.29 171.705 2471.62 166.136C2474.96 160.53 2476.62 154.318 2476.62 147.5C2476.62 140.682 2474.96 134.489 2471.62 128.92C2468.29 123.314 2463.82 118.845 2458.22 115.511C2452.65 112.178 2446.45 110.511 2439.64 110.511C2432.82 110.511 2426.61 112.178 2421 115.511C2415.43 118.845 2410.98 123.314 2407.65 128.92C2404.31 134.489 2402.65 140.682 2402.65 147.5C2402.65 154.318 2404.31 160.53 2407.65 166.136C2410.98 171.705 2415.43 176.155 2421 179.489C2426.61 182.822 2432.82 184.489 2439.64 184.489Z" fill="black"/>
<defs>
<linearGradient id="paint0_linear_301_66" x1="0" y1="255.54" x2="511.12" y2="255.54" gradientUnits="userSpaceOnUse">
<stop stop-color="#5095F8"/>
<stop offset="1" stop-color="#4463F3"/>
</linearGradient>
<clipPath id="clip0_301_66">
<rect width="2386.03" height="511.07" fill="white"/>
</clipPath>
</defs>
</svg>
